<?xml version="1.0" encoding="UTF-8"?>
<svg width="14.817mm" height="16.933mm" version="1.1" viewBox="0 0 14.817 16.933" xmlns="http://www.w3.org/2000/svg">
<g transform="translate(-47.831 -150.94)">
<g transform="matrix(.52917 0 0 .52917 46.773 150.94)" stroke="#000" stroke-linejoin="round" stroke-miterlimit="10" stroke-width="2">
<path d="m25 3v-2h-22v28c0 1.105 0.895 2 2 2h22c1.105 0 2-0.895 2-2v-26z" fill="#b3b3b3"/>
<line x1="25" x2="25" y1="3" y2="24" fill="none"/>
<line x1="25" x2="25" y1="26" y2="28" fill="none"/>
<line x1="6" x2="22" y1="15" y2="15" fill="none"/>
<line x1="6" x2="22" y1="19" y2="19" fill="none"/>
<line x1="6" x2="18" y1="23" y2="23" fill="none"/>
<line x1="18.815" x2="22" y1="11" y2="11" fill="none" stop-color="#000000" style="font-variation-settings:normal"/>
<line x1="18.815" x2="22" y1="7" y2="7" fill="none" stop-color="#000000" style="font-variation-settings:normal"/>
</g>
<g transform="translate(0 .45105)">
<g transform="matrix(.25048 0 0 .16946 34.788 127.82)">
<path d="m61.44 152.53c-0.56133 0-1.0132 0.4519-1.0132 1.0132v15.787c0 0.56132 0.45189 1.0132 1.0132 1.0132h15.787c0.56133 0 1.0132-0.4519 1.0132-1.0132v-15.787c0-0.56132-0.45189-1.0132-1.0132-1.0132h-7.8397z" fill="#fff"/>
<path d="m61.44 152.53c-0.56133 0-1.0132 0.4519-1.0132 1.0132v2.8101h17.814v-2.8101c0-0.56132-0.45189-1.0132-1.0132-1.0132h-7.8397z" fill="#0038b8" style="paint-order:markers fill stroke"/>
<path d="m61.44 170.35c-0.56133 0-1.0132-0.45189-1.0132-1.0132v-2.8101h17.814v2.8101c0 0.56133-0.45189 1.0132-1.0132 1.0132h-7.8397z" fill="#0038b8" style="paint-order:markers fill stroke"/>
</g>
<path transform="matrix(.25048 0 0 .25048 34.788 114.74)" d="m69.338 157.99-0.99432 1.7189-1.5857 1e-3 -0.41288 3.4e-4 0.99879 1.7267-0.99879 1.7267 0.41288 3.4e-4 1.5857 1e-3 0.99432 1.7189 0.98962-1.7173 1.9948 2e-3 -0.99786-1.7316 0.99786-1.7315-1.9947 2e-3zm-8.85e-4 0.95322 0.44066 0.76459-0.88332 6.8e-4zm2.1602 1.2398-0.44773 0.77693-0.44732-0.77618zm-1.4449 1e-3 0.72215 1.253-0.72215 1.2531-1.4337-1e-3 -0.72415-1.2519 0.72415-1.2519zm-1.9845 2e-3 -0.44862 0.77557-0.4482-0.77483zm-0.44857 1.7274 0.44866 0.77563-0.89691-6.8e-4zm3.4303 1e-3 0.44773 0.77692-0.89505-6.8e-4zm-2.1551 1.2515 0.88337 6.8e-4 -0.44066 0.76464z" color="#000000" color-rendering="auto" dominant-baseline="auto" fill="#0038b8" image-rendering="auto" shape-rendering="auto" solid-color="#000000" style="font-feature-settings:normal;font-variant-alternates:normal;font-variant-caps:normal;font-variant-ligatures:normal;font-variant-numeric:normal;font-variant-position:normal;isolation:auto;mix-blend-mode:normal;paint-order:markers fill stroke;shape-padding:0;text-decoration-color:#000000;text-decoration-line:none;text-decoration-style:solid;text-indent:0;text-orientation:mixed;text-transform:none;white-space:normal"/>
</g>
</g>
</svg>
